G05
M48
INCH,TZ
FMAT,2
T1C00.0250
%
T001
G00X0.0983Y1.1154
M15
G01X0.0983Y2.5210
X0.5038Y2.5210
X0.5038Y1.1154
X0.0983Y1.1154
M17
G00X0.1082Y1.2316
M15
G01X0.1082Y2.5111
X0.4940Y2.5111
X0.4940Y1.1253
X0.1810Y1.1253
M17
G00X0.2060Y3.0066
M15
G01X0.2560Y3.0066
M17
G00X0.2436Y3.6654
M15
G01X0.4684Y3.6654
X0.4684Y3.4808
X0.2436Y3.4808
X0.2436Y3.6654
M17
G00X0.2560Y2.9566
M15
G01X0.2560Y3.0566
X0.4560Y3.0566
X0.4560Y2.9566
X0.2560Y2.9566
M17
G00X0.2560Y3.2816
M15
G01X0.2060Y3.2816
M17
G00X0.4560Y3.0066
M15
G01X0.5060Y3.0066
M17
G00X0.4560Y3.3316
M15
G01X0.4560Y3.2316
X0.2560Y3.2316
X0.2560Y3.3316
X0.4560Y3.3316
M17
G00X0.4586Y3.4906
M15
G01X0.4586Y3.6556
X0.2534Y3.6556
X0.2534Y3.5316
M17
G00X0.5060Y3.2816
M15
G01X0.4560Y3.2816
M17
G00X0.5786Y0.4816
M15
G01X0.2381Y0.4816
M17
G00X0.6011Y1.0769
M15
G01X0.6011Y0.7816
X1.0609Y0.7816
X1.0609Y1.0769
X0.6011Y1.0769
M17
G00X0.7050Y1.3066
M15
G02X1.0692Y1.3066A0.1821
M17
G00X0.7050Y1.3066
M15
G02X1.0692Y1.3066A0.1821
X0.7050Y1.3066A0.1821
M17
G00X0.7247Y1.3066
M15
G02X1.0495Y1.3066A0.1624
M17
G00X0.7247Y1.3066
M15
G02X1.0495Y1.3066A0.1624
X0.7247Y1.3066A0.1624
M17
G00X0.7296Y0.7635
M15
G02X0.7275Y0.7635A0.0010
M17
G00X0.7296Y0.7635
M15
G02X0.7275Y0.7635A0.0010
X0.7296Y0.7635A0.0010
M17
G00X0.7574Y3.6066
M15
G01X0.7074Y3.6066
M17
G00X0.7899Y4.4312
M15
G01X0.7899Y4.8367
X1.2032Y4.8367
X1.2032Y4.4312
X0.7899Y4.4312
M17
G00X0.8080Y0.3822
M15
G01X0.9074Y0.4816
X1.2479Y0.4816
M17
G00X0.9060Y4.4410
M15
G01X1.1934Y4.4410
X1.1934Y4.8269
X0.7997Y4.8269
X0.7997Y4.5139
M17
G00X0.9074Y0.3822
M15
G01X0.5786Y0.3822
X0.5786Y0.5810
X0.9074Y0.5810
X0.9074Y0.3822
M17
G00X0.9574Y3.6566
M15
G01X0.9574Y3.5566
X0.7574Y3.5566
X0.7574Y3.6566
X0.9574Y3.6566
M17
G00X0.9627Y3.2816
M15
G02X0.6477Y3.2816A0.1575
M17
G00X0.9627Y3.2816
M15
G02X0.6477Y3.2816A0.1575
X0.9627Y3.2816A0.1575
M17
G00X0.9824Y3.2816
M15
G02X0.6280Y3.2816A0.1772
M17
G00X0.9824Y3.2816
M15
G02X0.6280Y3.2816A0.1772
X0.9824Y3.2816A0.1772
M17
G00X1.0074Y3.6066
M15
G01X0.9574Y3.6066
M17
G00X1.1436Y2.0904
M15
G01X1.3684Y2.0904
X1.3684Y1.9058
X1.1436Y1.9058
X1.1436Y2.0904
M17
G00X1.1560Y1.5316
M15
G01X1.2060Y1.5316
M17
G00X1.2060Y1.4816
M15
G01X1.2060Y1.5816
X1.4060Y1.5816
X1.4060Y1.4816
X1.2060Y1.4816
M17
G00X1.2060Y1.7816
M15
G01X1.1560Y1.7816
M17
G00X1.2076Y3.0080
M15
G01X1.5029Y3.0080
X1.5029Y2.8052
X1.2076Y2.8052
X1.2076Y3.0080
M17
G00X1.2469Y2.9686
M15
G01X1.4635Y2.9686
X1.4635Y2.8446
X1.2469Y2.8446
X1.2469Y2.9686
M17
G00X1.3180Y1.2406
M15
G01X1.3180Y1.0241
X1.1940Y1.0241
X1.1940Y1.2406
X1.3180Y1.2406
M17
G00X1.3574Y1.2800
M15
G01X1.3574Y0.9847
X1.1546Y0.9847
X1.1546Y1.2800
X1.3574Y1.2800
M17
G00X1.3586Y1.9156
M15
G01X1.3586Y2.0806
X1.1534Y2.0806
X1.1534Y1.9566
M17
G00X1.3601Y0.3684
M15
G01X0.1259Y0.3684
X0.1259Y0.5948
X1.3601Y0.5948
X1.3601Y0.3684
M17
G00X1.4060Y1.5316
M15
G01X1.4560Y1.5316
M17
G00X1.4060Y1.8316
M15
G01X1.4060Y1.7316
X1.2060Y1.7316
X1.2060Y1.8316
X1.4060Y1.8316
M17
G00X1.4560Y1.7816
M15
G01X1.4060Y1.7816
M17
G00X1.5560Y2.0316
M15
G01X1.5060Y2.0316
M17
G00X1.6076Y0.9580
M15
G01X1.9029Y0.9580
X1.9029Y0.7552
X1.6076Y0.7552
X1.6076Y0.9580
M17
G00X1.6358Y4.7164
M15
G01X2.0262Y4.7164
X2.0262Y4.2967
X1.6358Y4.2967
X1.6358Y4.7164
M17
G00X1.6469Y0.9186
M15
G01X1.8635Y0.9186
X1.8635Y0.7946
X1.6469Y0.7946
X1.6469Y0.9186
M17
G00X1.6544Y4.7066
M15
G01X1.9710Y4.7066
M17
G00X1.6910Y4.3066
M15
G01X1.9710Y4.3066
M17
G00X1.7310Y2.4066
M15
G01X1.7310Y2.4566
M17
G00X1.7310Y2.6566
M15
G01X1.7310Y2.7066
M17
G00X1.7310Y2.9566
M15
G01X1.7310Y3.0066
M17
G00X1.7310Y3.2066
M15
G01X1.7310Y3.2566
M17
G00X1.7560Y2.0816
M15
G01X1.7560Y1.9816
X1.5560Y1.9816
X1.5560Y2.0816
X1.7560Y2.0816
M17
G00X1.7810Y2.4566
M15
G01X1.6810Y2.4566
X1.6810Y2.6566
X1.7810Y2.6566
X1.7810Y2.4566
M17
G00X1.7810Y3.0066
M15
G01X1.6810Y3.0066
X1.6810Y3.2066
X1.7810Y3.2066
X1.7810Y3.0066
M17
G00X1.8060Y2.0316
M15
G01X1.7560Y2.0316
M17
G00X1.9377Y1.7066
M15
G02X1.6227Y1.7066A0.1575
M17
G00X1.9377Y1.7066
M15
G02X1.6227Y1.7066A0.1575
X1.9377Y1.7066A0.1575
M17
G00X1.9479Y4.0739
M15
G01X1.7314Y4.0739
X1.7314Y4.1979
X1.9479Y4.1979
X1.9479Y4.0739
M17
G00X1.9513Y0.4816
M15
G02X1.5576Y0.4816A0.1969
M17
G00X1.9513Y0.4816
M15
G02X1.5576Y0.4816A0.1969
X1.9513Y0.4816A0.1969
M17
G00X1.9574Y1.7066
M15
G02X1.6030Y1.7066A0.1772
M17
G00X1.9574Y1.7066
M15
G02X1.6030Y1.7066A0.1772
X1.9574Y1.7066A0.1772
M17
G00X1.9710Y0.4816
M15
G02X1.5379Y0.4816A0.2165
M17
G00X1.9710Y0.4816
M15
G02X1.5379Y0.4816A0.2165
X1.9710Y0.4816A0.2165
M17
G00X1.9873Y4.0345
M15
G01X1.6920Y4.0345
X1.6920Y4.2373
X1.9873Y4.2373
X1.9873Y4.0345
M17
G00X2.2310Y4.3316
M15
G01X2.2310Y4.3816
M17
G00X2.2310Y4.5816
M15
G01X2.2310Y4.6316
M17
G00X2.2810Y4.3816
M15
G01X2.1810Y4.3816
X2.1810Y4.5816
X2.2810Y4.5816
X2.2810Y4.3816
M17
G00X2.3310Y2.7066
M15
G01X2.3310Y3.0066
X2.2310Y3.0066
X2.2310Y2.7066
X2.3310Y2.7066
M17
G00X2.5680Y4.6156
M15
G01X2.5680Y4.3991
X2.4440Y4.3991
X2.4440Y4.6156
X2.5680Y4.6156
M17
G00X2.6074Y4.6550
M15
G01X2.6074Y4.3597
X2.4046Y4.3597
X2.4046Y4.6550
X2.6074Y4.6550
M17
G00X3.7860Y3.5116
M15
G01X3.7860Y1.5016
X3.0760Y1.5016
X3.0760Y3.5116
X3.4248Y3.5116
X3.4248Y3.5053
X3.4373Y3.5053
X3.4373Y3.5116
X3.7860Y3.5116
M17
G00X4.4688Y4.8237
M15
G01X5.3782Y4.8237
X5.3782Y4.4182
X4.4688Y4.4182
X4.4688Y4.8237
M17
G00X4.4891Y2.1558
M15
G01X4.6623Y2.1558
X4.6623Y2.5574
X4.5560Y2.5574
M17
G00X4.5849Y4.8139
M15
G01X5.3684Y4.8139
X5.3684Y4.4280
X4.4786Y4.4280
X4.4786Y4.7154
M17
G00X4.6721Y2.5672
M15
G01X4.6721Y2.1460
X4.4792Y2.1460
X4.4792Y2.5672
X4.6721Y2.5672
M17
G00X5.0310Y0.1393
M15
G01X4.4834Y0.1393
X4.4834Y0.9267
X4.8601Y0.9267
M17
G00X5.0994Y0.1294
M15
G01X5.0994Y0.9365
X4.4735Y0.9365
X4.4735Y0.1294
X5.0994Y0.1294
M17
G00X5.1796Y0.2332
M15
G01X5.1796Y0.5284
X5.3824Y0.5284
X5.3824Y0.2332
X5.1796Y0.2332
M17
G00X5.2190Y0.2725
M15
G01X5.2190Y0.4891
X5.3430Y0.4891
X5.3430Y0.2725
X5.2190Y0.2725
M17
G00X5.4389Y1.4328
M15
G01X5.4389Y1.8383
X5.8523Y1.8383
X5.8523Y1.4328
X5.4389Y1.4328
M17
G00X5.5550Y1.4426
M15
G01X5.8424Y1.4426
X5.8424Y1.8284
X5.4487Y1.8284
X5.4487Y1.5154
M17
M30
