G04 DesignSpark PCB Gerber Version 9.0 Build 5138 *
%FSLAX35Y35*%
%MOIN*%
%ADD24R,0.04331X0.04331*%
%ADD74R,0.04563X0.04563*%
%ADD21R,0.04724X0.04724*%
%ADD22R,0.05020X0.05020*%
%ADD72R,0.05965X0.05965*%
%ADD76R,0.06000X0.06000*%
%ADD28R,0.06496X0.06496*%
%ADD26R,0.07323X0.07323*%
%ADD14R,0.08268X0.08268*%
%ADD70R,0.08563X0.08563*%
%ADD18R,0.08858X0.08858*%
%ADD10C,0.01000*%
%ADD12C,0.01181*%
%ADD11C,0.04000*%
%ADD25C,0.04331*%
%ADD75C,0.04563*%
%ADD20C,0.04724*%
%ADD17C,0.04961*%
%ADD23C,0.05020*%
%ADD73C,0.05965*%
%ADD16C,0.06000*%
%ADD29C,0.06496*%
%ADD27C,0.07323*%
%ADD15C,0.08268*%
%ADD71C,0.08563*%
%ADD19C,0.08858*%
%ADD13C,0.14961*%
X0Y0D02*
D02*
D10*
X15600Y328159D02*
X15029Y327923D01*
X9990*
Y238907*
X18100*
X17549Y115009D02*
X105738D01*
Y183041*
X114557*
Y451387*
X107135*
X18002Y48159D02*
Y123159D01*
X18100*
X22588Y305246D02*
Y338002D01*
X26368Y232175D02*
Y189340D01*
X46525Y178002D02*
Y123159D01*
X39754*
X55600Y328159D02*
X55344Y327923D01*
X30600*
Y353159*
X72982Y48238D02*
Y86033D01*
X73100*
X106998Y485403D02*
Y473041D01*
X107135*
X120600Y178002D02*
Y195659D01*
Y178002D02*
X127155D01*
X120600D02*
Y153159D01*
X110600*
X158651Y266191D02*
Y465659D01*
X167726*
X164950Y261151D02*
Y435659D01*
X167726*
X165600Y48159D02*
Y85659D01*
X170600*
X173100Y290659D02*
Y275659D01*
Y315324D02*
Y290659D01*
X185108Y325403D02*
Y203159D01*
X185600*
X198966Y480364D02*
X202746D01*
Y450128*
X206525Y485403D02*
Y445659D01*
X198474*
X222903Y445088D02*
Y428159D01*
X223100*
X282116Y335482D02*
Y360679D01*
X313612Y446348D02*
X313100D01*
Y345659*
X319911Y261151D02*
Y275659D01*
X313100*
X365265Y43198D02*
Y225659D01*
X373100*
X474872Y293907D02*
Y453750D01*
X475029*
Y455009*
Y471545*
X507628Y305246D02*
Y455009D01*
X508100*
Y471545*
X510147Y215797D02*
Y43159D01*
X503100*
X579439Y235954D02*
Y151545D01*
X572037*
D02*
D11*
X17549Y115009D03*
X22588Y305246D03*
Y338002D03*
X26368Y189340D03*
Y232175D03*
X46525Y178002D03*
X72982Y48238D03*
X106998Y485403D03*
X127155Y178002D03*
X158651Y266191D03*
X164950Y261151D03*
X173100Y315324D03*
X185108Y325403D03*
X198966Y480364D03*
X202746Y450128D03*
X206525Y485403D03*
X222903Y445088D03*
X282116Y335482D03*
Y360679D03*
X313612Y25561D03*
Y446348D03*
X319911Y261151D03*
X365265Y43198D03*
X380383Y450128D03*
X396761Y150285D03*
X474872Y293907D03*
X507628Y305246D03*
X510147Y215797D03*
X579439Y235954D03*
D02*
D12*
X313612Y25561D02*
Y155659D01*
X313100*
X396761Y325659D02*
X373100D01*
X396761D02*
Y388395D01*
X380383*
Y450128*
X396761Y325659D02*
Y150285D01*
D02*
D13*
X23100Y23159D03*
Y470659D03*
X570600D03*
X573100Y20659D03*
D02*
D14*
X18100Y123159D03*
D02*
D15*
Y139694D03*
Y156230D03*
Y172765D03*
Y189301D03*
Y205836D03*
Y222372D03*
Y238907D03*
X39754Y123159D03*
Y139694D03*
Y156230D03*
Y172765D03*
Y189301D03*
Y205836D03*
Y222372D03*
Y238907D03*
D02*
D16*
X15600Y300659D03*
Y328159D03*
X55600Y300659D03*
Y328159D03*
X65738Y360659D03*
X105738D03*
X110600Y153159D03*
Y178159D03*
X145600Y203159D03*
X150600Y153159D03*
Y178159D03*
X173100Y235659D03*
Y275659D03*
Y290659D03*
Y330659D03*
X185600Y203159D03*
X223100Y428159D03*
Y468159D03*
X313100Y155659D03*
Y165659D03*
Y175659D03*
Y185659D03*
Y195659D03*
Y205659D03*
Y215659D03*
Y225659D03*
Y235659D03*
Y245659D03*
Y255659D03*
Y265659D03*
Y275659D03*
Y285659D03*
Y295659D03*
Y305659D03*
Y315659D03*
Y325659D03*
Y335659D03*
Y345659D03*
X373100Y155659D03*
Y165659D03*
Y175659D03*
Y185659D03*
Y195659D03*
Y205659D03*
Y215659D03*
Y225659D03*
Y235659D03*
Y245659D03*
Y255659D03*
Y265659D03*
Y275659D03*
Y285659D03*
Y295659D03*
Y305659D03*
Y315659D03*
Y325659D03*
Y335659D03*
Y345659D03*
D02*
D17*
X73100Y86033D03*
X83100D03*
X93100D03*
D02*
D18*
X130600Y48159D03*
D02*
D19*
X18002D03*
D02*
D70*
X458494Y471545D03*
D02*
D71*
Y455009D03*
X475029D03*
Y471545D03*
X491565Y455009D03*
Y471545D03*
X508100Y455009D03*
Y471545D03*
X524635Y455009D03*
Y471545D03*
D02*
D20*
X81820Y130659D03*
X125600Y108317D03*
Y118159D03*
X130600Y290659D03*
X140443D03*
X170600Y85659D03*
X179045Y413592D03*
X180443Y85659D03*
X188887Y413592D03*
X250600Y445817D03*
Y455659D03*
X528100Y33159D03*
Y43002D03*
D02*
D21*
X95600Y130659D03*
D02*
D22*
X165600Y48159D03*
D02*
D23*
X185285D03*
D02*
D24*
X75600Y328159D03*
X173100Y170659D03*
D02*
D25*
X85443Y328159D03*
X182943Y170659D03*
D02*
D26*
X455600Y245659D03*
D02*
D27*
Y225659D03*
Y235659D03*
D02*
D28*
X90600Y451387D03*
X503100Y33159D03*
X555502Y151545D03*
D02*
D29*
X90600Y473041D03*
X107135Y451387D03*
Y473041D03*
X493100Y33159D03*
Y43159D03*
Y53159D03*
Y63159D03*
Y73159D03*
X503100Y43159D03*
Y53159D03*
Y63159D03*
Y73159D03*
X555502Y173198D03*
X572037Y151545D03*
Y173198D03*
D02*
D72*
X30600Y353159D03*
X120600Y195659D03*
D02*
D73*
X35600Y361033D03*
X40600Y353159D03*
X125600Y203533D03*
X130600Y195659D03*
D02*
D74*
X167726Y465659D03*
D02*
D75*
Y435659D03*
Y445659D03*
Y455659D03*
X198474Y435659D03*
Y445659D03*
Y455659D03*
Y465659D03*
D02*
D76*
X228100Y275659D03*
Y285659D03*
Y295659D03*
X0Y0D02*
M02*
